<?xml version="1.0" standalone="no"?>
<!DOCTYPE svg PUBLIC "-//W3C//DTD SVG 20010904//EN"
 "http://www.w3.org/TR/2001/REC-SVG-20010904/DTD/svg10.dtd">
<svg version="1.0" xmlns="http://www.w3.org/2000/svg"
 width="700.000000pt" height="700.000000pt" viewBox="0 0 700.000000 700.000000"
 preserveAspectRatio="xMidYMid meet">
<metadata>
Created by potrace 1.11, written by Peter Selinger 2001-2013
</metadata>
<g transform="translate(0.000000,700.000000) scale(0.100000,-0.100000)"
fill="#000000" stroke="none">
<path d="M5198 5713 c-301 -302 -599 -599 -662 -662 l-115 -114 -461 461 -462
462 -1744 -1 c-959 0 -1744 -3 -1744 -7 1 -4 22 -24 48 -44 44 -35 70 -57 132
-111 14 -12 68 -58 120 -102 52 -44 100 -84 106 -90 6 -5 49 -41 95 -80 45
-38 101 -86 124 -106 22 -19 159 -136 305 -259 146 -123 267 -227 270 -230 3
-3 32 -27 65 -55 33 -27 62 -52 65 -55 3 -3 34 -30 70 -60 36 -30 67 -57 70
-60 3 -3 46 -39 95 -80 50 -41 92 -77 95 -80 3 -3 50 -44 105 -90 182 -153
800 -683 810 -694 6 -6 33 -29 60 -51 28 -22 55 -45 60 -51 6 -6 42 -37 80
-70 39 -32 77 -66 85 -75 13 -14 15 -177 15 -1343 0 -729 2 -1326 5 -1326 3 0
649 645 1436 1433 l1431 1432 -1 717 -1 717 613 -1 c337 0 615 2 618 5 5 5
-31 42 -729 730 -268 265 -493 483 -500 485 -7 1 -258 -244 -559 -545z"/>
</g>
</svg>
